<svg width="17" height="18" viewBox="0 0 17 18" fill="none" xmlns="http://www.w3.org/2000/svg">
<path fill-rule="evenodd" clip-rule="evenodd" d="M8.56643 1.6999C8.41427 1.65559 8.2526 1.65559 8.10035 1.6999C8.0566 1.71266 7.9796 1.74458 7.81585 1.86855C7.64368 1.99894 7.43285 2.18554 7.10435 2.47755L2.73797 6.35875C2.20267 6.83457 2.05092 6.97808 1.94542 7.13675C1.84394 7.28941 1.76834 7.45775 1.72167 7.635C1.67314 7.81933 1.66672 8.028 1.66672 8.74425V12.9117C1.66672 13.6376 1.6674 14.131 1.69905 14.5122C1.72987 14.8834 1.78572 15.0729 1.85437 15.205C2.0125 15.5094 2.2607 15.7577 2.56511 15.9157C2.69725 15.9844 2.88674 16.0402 3.25794 16.0711C3.63911 16.1027 4.13254 16.1034 4.85839 16.1034H5.00006V13.6034C5.00006 11.7625 6.49244 10.2701 8.33343 10.2701C10.1743 10.2701 11.6668 11.7625 11.6668 13.6034V16.1034H11.8084C12.5343 16.1034 13.0277 16.1027 13.4088 16.0711C13.78 16.0402 13.9695 15.9844 14.1017 15.9157C14.4061 15.7577 14.6543 15.5094 14.8124 15.205C14.8811 15.0729 14.9369 14.8834 14.9678 14.5122C14.9993 14.131 15.0001 13.6376 15.0001 12.9117V8.74425C15.0001 8.028 14.9937 7.81933 14.9451 7.635C14.8984 7.45775 14.8229 7.28941 14.7213 7.13675C14.6158 6.97808 14.4641 6.83457 13.9288 6.35875L9.56243 2.47755C9.23393 2.18554 9.0231 1.99894 8.85093 1.86855C8.68718 1.74458 8.61018 1.71266 8.56643 1.6999ZM7.63435 0.0997125C8.09093 -0.0332375 8.57585 -0.0332375 9.03243 0.0997125C9.34918 0.191971 9.61185 0.354204 9.85693 0.539771C10.0878 0.714538 10.3478 0.945612 10.6471 1.2117L15.0361 5.11307C15.0598 5.13407 15.083 5.15479 15.1061 5.17524C15.5408 5.56125 15.8692 5.85287 16.1094 6.21405C16.3123 6.51938 16.4635 6.85609 16.5568 7.21066C16.6673 7.63008 16.6671 8.06925 16.6668 8.65058C16.6668 8.68141 16.6668 8.71258 16.6668 8.74425V12.9467C16.6668 13.6288 16.6668 14.1918 16.6287 14.6502C16.5892 15.1262 16.5043 15.5637 16.2914 15.9733C15.9752 16.5822 15.4788 17.0785 14.87 17.3947C14.4603 17.6076 14.0229 17.6925 13.5468 17.732C13.0884 17.7701 12.5255 17.7701 11.8433 17.7701H11.5043C11.4978 17.7701 11.4913 17.7701 11.4846 17.7701C11.3837 17.7701 11.2632 17.7702 11.157 17.7613C11.0339 17.7512 10.8578 17.7249 10.6738 17.6293C10.4455 17.5107 10.2593 17.3246 10.1408 17.0963C10.0453 16.9123 10.019 16.7362 10.0088 16.6131C9.99993 16.507 10 16.3864 10 16.2855L10.0001 13.6034C10.0001 12.6829 9.25385 11.9367 8.33343 11.9367C7.41293 11.9367 6.66672 12.6829 6.66672 13.6034L6.66673 16.2855C6.66677 16.3864 6.66685 16.507 6.65801 16.6131C6.64778 16.7362 6.62153 16.9123 6.52599 17.0963C6.4074 17.3246 6.22125 17.5107 5.99295 17.6293C5.80902 17.7249 5.63284 17.7512 5.50977 17.7613C5.40362 17.7702 5.28309 17.7701 5.18216 17.7701C5.17554 17.7701 5.169 17.7701 5.16256 17.7701H4.82342C4.1413 17.7701 3.57834 17.7701 3.12 17.732C2.64387 17.6925 2.20651 17.6076 1.79681 17.3947C1.188 17.0785 0.691599 16.5822 0.375349 15.9733C0.162532 15.5637 0.0776402 15.1262 0.0380985 14.6502C4.01493e-05 14.1918 4.85775e-05 13.6288 5.69108e-05 12.9467V8.74425C5.69108e-05 8.71258 4.02102e-05 8.68141 3.18768e-05 8.65058C-0.000276456 8.06925 -0.000501523 7.63008 0.109932 7.21066C0.20329 6.85609 0.354499 6.51938 0.557465 6.21405C0.797565 5.85287 1.12597 5.56125 1.5607 5.17525C1.58373 5.15479 1.60706 5.13407 1.63069 5.11307L6.01972 1.21171C6.31905 0.945613 6.57899 0.714538 6.80985 0.539771C7.05493 0.354204 7.3176 0.191971 7.63435 0.0997125Z" fill="#D9D9D9"/>
</svg>
