<svg width="17" height="22" viewBox="0 0 17 22" fill="none" xmlns="http://www.w3.org/2000/svg">
<path fill-rule="evenodd" clip-rule="evenodd" d="M1.5 1C1.22386 1 1 1.22386 1 1.5V20.5C1 20.7761 1.22386 21 1.5 21C1.77614 21 2 20.7761 2 20.5V1.5C2 1.22386 1.77614 1 1.5 1ZM5.0934 5.44531C4.81726 5.44531 4.5934 5.66917 4.5934 5.94531L4.5934 20.5009C4.5934 20.777 4.81726 21.0009 5.0934 21.0009C5.36955 21.0009 5.5934 20.777 5.5934 20.5009L5.5934 5.94531C5.5934 5.66917 5.36955 5.44531 5.0934 5.44531ZM8.68537 20.9999C8.40922 20.9999 8.18537 20.7761 8.18537 20.4999L8.18537 4.46289C8.18537 4.18675 8.40922 3.96289 8.68537 3.96289C8.96151 3.96289 9.18537 4.18675 9.18537 4.46289L9.18537 20.4999C9.18537 20.7761 8.96151 20.9999 8.68537 20.9999ZM12.306 3.88727C12.0206 3.92821 11.8292 4.20193 11.8887 4.4841L15.2752 20.5427C15.3295 20.7999 15.574 20.9709 15.8343 20.9336C16.1197 20.8926 16.3111 20.6189 16.2516 20.3367L12.8651 4.27819C12.8108 4.02095 12.5663 3.84995 12.306 3.88727Z" fill="white"/>
<path d="M12.8651 4.27819L12.3758 4.38137L12.8651 4.27819ZM16.2516 20.3367L16.7409 20.2336L16.2516 20.3367ZM11.8887 4.4841L11.3994 4.58727L11.8887 4.4841ZM15.2752 20.5427L14.786 20.6458L15.2752 20.5427ZM9.18537 20.4999H8.68537H9.18537ZM9.18537 4.46289H8.68537H9.18537ZM8.18537 4.46289H8.68537H8.18537ZM5.5934 20.5009H5.0934H5.5934ZM4.5934 5.94531H4.0934H4.5934ZM4.5934 20.5009H4.0934H4.5934ZM1.5 20.5V1.5H0.5V20.5H1.5ZM1.5 1.5V20.5H2.5V1.5H1.5ZM5.0934 20.5009L5.0934 5.94531H4.0934L4.0934 20.5009H5.0934ZM5.0934 5.94531L5.0934 20.5009H6.0934L6.0934 5.94531H5.0934ZM7.68537 4.46289L7.68537 20.4999H8.68537L8.68537 4.46289H7.68537ZM9.68537 20.4999L9.68537 4.46289L8.68537 4.46289L8.68537 20.4999H9.68537ZM15.7645 20.4395L12.3779 4.38093L11.3994 4.58727L14.786 20.6458L15.7645 20.4395ZM12.3758 4.38137L15.7624 20.4399L16.7409 20.2336L13.3543 4.17502L12.3758 4.38137ZM13.3543 4.17502C13.2457 3.65999 12.7561 3.31761 12.2351 3.39233L12.377 4.3822C12.3776 4.38212 12.3772 4.38222 12.3765 4.38204C12.376 4.38194 12.376 4.38186 12.3763 4.38202C12.3765 4.38218 12.3764 4.38221 12.3762 4.38183C12.3758 4.38122 12.3757 4.38077 12.3758 4.38137L13.3543 4.17502ZM15.9052 21.4285C16.4768 21.3465 16.86 20.7985 16.7409 20.2336L15.7624 20.4399C15.7626 20.4409 15.7624 20.4403 15.7626 20.4392C15.7627 20.4386 15.7628 20.4387 15.7626 20.4391C15.7623 20.4395 15.7622 20.4394 15.7627 20.4391C15.7636 20.4385 15.7642 20.4385 15.7633 20.4386L15.9052 21.4285ZM12.3779 4.38093C12.3777 4.37997 12.3779 4.38055 12.3777 4.3816C12.3776 4.38221 12.3775 4.38216 12.3778 4.38176C12.378 4.38136 12.3781 4.38143 12.3776 4.38177C12.3767 4.38234 12.3761 4.38234 12.377 4.3822L12.2351 3.39233C11.6635 3.4743 11.2803 4.02232 11.3994 4.58727L12.3779 4.38093ZM14.786 20.6458C14.8946 21.1609 15.3842 21.5032 15.9052 21.4285L15.7633 20.4386C15.7627 20.4387 15.7631 20.4386 15.7638 20.4388C15.7643 20.4389 15.7643 20.439 15.764 20.4388C15.7638 20.4387 15.7639 20.4386 15.7641 20.439C15.7646 20.4396 15.7646 20.4401 15.7645 20.4395L14.786 20.6458ZM8.68537 20.4999V21.4999C9.23765 21.4999 9.68537 21.0522 9.68537 20.4999H8.68537ZM8.68537 4.46289V4.46289L9.68537 4.46289C9.68537 3.9106 9.23765 3.46289 8.68537 3.46289V4.46289ZM7.68537 20.4999C7.68537 21.0522 8.13308 21.4999 8.68537 21.4999V20.4999H7.68537ZM8.68537 4.46289V3.46289C8.13308 3.46289 7.68537 3.91061 7.68537 4.46289H8.68537ZM6.0934 5.94531C6.0934 5.39303 5.64569 4.94531 5.0934 4.94531V5.94531H6.0934ZM5.0934 21.5009C5.64569 21.5009 6.0934 21.0532 6.0934 20.5009H5.0934V21.5009ZM5.0934 5.94531L5.0934 5.94531V4.94531C4.54112 4.94531 4.0934 5.39303 4.0934 5.94531H5.0934ZM4.0934 20.5009C4.0934 21.0532 4.54112 21.5009 5.0934 21.5009V20.5009H4.0934ZM2.5 1.5C2.5 0.947715 2.05228 0.5 1.5 0.5V1.5H2.5ZM1.5 21.5C2.05228 21.5 2.5 21.0523 2.5 20.5H1.5V21.5ZM1.5 1.5V1.5V0.5C0.947716 0.5 0.5 0.947714 0.5 1.5H1.5ZM0.5 20.5C0.5 21.0523 0.947715 21.5 1.5 21.5V20.5H0.5Z" fill="#D9D9D9"/>
</svg>
