<svg width="30" height="30" viewBox="0 0 30 30" fill="none" xmlns="http://www.w3.org/2000/svg">
<circle cx="15" cy="15" r="15" fill="#D9D9D9"/>
<path fill-rule="evenodd" clip-rule="evenodd" d="M15.0007 15.0006C12.6364 15.0006 10.7137 13.087 10.7137 10.734C10.7137 8.3809 12.6364 6.4673 15.0007 6.4673C17.3649 6.4673 19.2876 8.3809 19.2876 10.734C19.2876 13.087 17.3649 15.0006 15.0007 15.0006ZM19.0283 15.7185C20.7291 14.3563 21.7205 12.1536 21.3561 9.74191C20.9328 6.94404 18.5942 4.70516 15.7712 4.37876C11.8754 3.92756 8.57019 6.94623 8.57019 10.734C8.57019 12.75 9.50903 14.5462 10.973 15.7185C7.37626 17.0635 4.75048 20.222 4.33893 24.4844C4.27891 25.1148 4.77299 25.6673 5.40961 25.6673C5.95512 25.6673 6.42026 25.2577 6.46849 24.7169C6.89826 19.9564 10.5604 17.134 15.0007 17.134C19.4409 17.134 23.103 19.9564 23.5328 24.7169C23.581 25.2577 24.0462 25.6673 24.5917 25.6673C25.2283 25.6673 25.7224 25.1148 25.6624 24.4844C25.2508 20.222 22.6251 17.0635 19.0283 15.7185Z" fill="#3F3F3F"/>
</svg>
